<svg width="277" height="183" viewBox="0 0 277 183" fill="none" xmlns="http://www.w3.org/2000/svg">
<g opacity="0.5">
<path d="M162.029 91.0757H61.1865V95.2434H162.029V91.0757Z" fill="url(#paint0_linear_585_1081)" stroke="#422A73" stroke-width="3" stroke-miterlimit="10" stroke-linejoin="round"/>
<path d="M90.6522 111.53V153.248C90.6522 157.281 87.3838 160.549 83.3497 160.549H82.1339C78.0953 160.549 74.8262 157.281 74.8262 153.248V109.602C81.5177 108.345 80.9536 112.496 90.6522 111.53Z" fill="url(#paint1_linear_585_1081)"/>
<path opacity="0.8" d="M77.5946 153.248V109.374C76.813 109.338 75.9166 109.396 74.8262 109.602V153.248C74.8262 157.281 78.0953 160.549 82.1339 160.549H83.3497C83.6118 160.549 83.8701 160.533 84.1253 160.506C80.4522 160.121 77.5946 157.018 77.5946 153.248Z" fill="white"/>
<path d="M93.0722 82.1503V83.3314C93.0722 84.6363 92.0165 85.6927 90.7176 85.6927H90.6526H74.8266H74.7669C73.462 85.6927 72.4062 84.637 72.4062 83.3314V82.1503C72.4062 80.8514 73.462 79.7957 74.7669 79.7957H90.7176C92.0165 79.7957 93.0722 80.8514 93.0722 82.1503Z" fill="url(#paint2_linear_585_1081)"/>
<path d="M90.6522 85.692V111.53C80.9536 112.496 81.517 108.345 74.8262 109.602V85.692H90.6522Z" fill="url(#paint3_linear_585_1081)"/>
<path d="M74.8266 85.692H74.7669C73.462 85.692 72.4062 84.6363 72.4062 83.3306V82.1495C72.4062 80.8507 73.462 79.7949 74.7669 79.7949H90.7176C92.0165 79.7949 93.0722 80.8507 93.0722 82.1495V83.3306C93.0722 84.6356 92.0165 85.692 90.7176 85.692H90.6526H74.8266Z" stroke="#422A73" stroke-width="3" stroke-miterlimit="10" stroke-linejoin="round"/>
<path d="M90.6522 85.692V111.53V153.248C90.6522 157.281 87.3838 160.549 83.3497 160.549H82.1339C78.0953 160.549 74.8262 157.281 74.8262 153.248V109.602V85.692" stroke="#422A73" stroke-width="3" stroke-miterlimit="10" stroke-linejoin="round"/>
<path d="M74.8262 109.602C81.517 108.345 80.9536 112.496 90.6522 111.53" stroke="#422A73" stroke-width="3" stroke-miterlimit="10" stroke-linejoin="round"/>
<path opacity="0.4" d="M88.6936 118.928C88.6988 120.306 87.5857 121.426 86.2091 121.43C84.8309 121.436 83.711 120.324 83.7057 118.946L83.6664 108.203C83.6619 106.825 84.7758 105.703 86.1517 105.7C87.5291 105.693 88.6505 106.806 88.6543 108.183L88.6936 118.928ZM88.6263 99.7834C88.621 98.4059 87.5004 97.2943 86.123 97.2981C84.7455 97.3041 83.6332 98.4233 83.6377 99.8007L83.6445 101.255C83.6483 102.632 84.7689 103.744 86.1464 103.739C87.5238 103.734 88.6362 102.614 88.6309 101.237L88.6263 99.7834Z" fill="white"/>
<path d="M119.52 111.53V153.248C119.52 157.281 116.252 160.549 112.219 160.549H111.002C106.963 160.549 103.694 157.281 103.694 153.248V109.602C110.386 108.345 109.822 112.496 119.52 111.53Z" fill="url(#paint4_linear_585_1081)"/>
<path opacity="0.8" d="M106.463 153.248V109.374C105.681 109.338 104.785 109.396 103.694 109.602V153.248C103.694 157.281 106.963 160.549 111.002 160.549H112.219C112.481 160.549 112.739 160.533 112.994 160.506C109.321 160.121 106.463 157.018 106.463 153.248Z" fill="white"/>
<path d="M121.941 82.1503V83.3314C121.941 84.6363 120.885 85.6927 119.586 85.6927H119.521H103.695H103.636C102.331 85.6927 101.274 84.637 101.274 83.3314V82.1503C101.274 80.8514 102.331 79.7957 103.636 79.7957H119.586C120.885 79.7957 121.941 80.8514 121.941 82.1503Z" fill="url(#paint5_linear_585_1081)"/>
<path d="M119.52 85.692V111.53C109.822 112.496 110.386 108.345 103.694 109.602V85.692H119.52Z" fill="url(#paint6_linear_585_1081)"/>
<path d="M103.695 85.692H103.636C102.331 85.692 101.274 84.6363 101.274 83.3306V82.1495C101.274 80.8507 102.331 79.7949 103.636 79.7949H119.586C120.885 79.7949 121.941 80.8507 121.941 82.1495V83.3306C121.941 84.6356 120.885 85.692 119.586 85.692H119.521H103.695Z" stroke="#422A73" stroke-width="3" stroke-miterlimit="10" stroke-linejoin="round"/>
<path d="M119.52 85.692V111.53V153.248C119.52 157.281 116.252 160.549 112.219 160.549H111.002C106.963 160.549 103.694 157.281 103.694 153.248V109.602V85.692" stroke="#422A73" stroke-width="3" stroke-miterlimit="10" stroke-linejoin="round"/>
<path d="M103.694 109.602C110.386 108.345 109.822 112.496 119.52 111.53" stroke="#422A73" stroke-width="3" stroke-miterlimit="10" stroke-linejoin="round"/>
<path opacity="0.4" d="M117.562 118.928C117.567 120.306 116.454 121.426 115.077 121.43C113.7 121.436 112.58 120.324 112.575 118.946L112.536 108.203C112.532 106.825 113.645 105.703 115.021 105.7C116.397 105.693 117.519 106.806 117.524 108.183L117.562 118.928ZM117.494 99.7834C117.488 98.4059 116.368 97.2943 114.991 97.2981C113.613 97.3041 112.501 98.4233 112.506 99.8007L112.511 101.255C112.516 102.632 113.637 103.744 115.013 103.739C116.39 103.734 117.503 102.614 117.498 101.237L117.494 99.7834Z" fill="white"/>
<path d="M148.389 111.53V153.248C148.389 157.281 145.119 160.549 141.086 160.549H139.87C135.831 160.549 132.562 157.281 132.562 153.248V109.602C139.253 108.345 138.689 112.496 148.389 111.53Z" fill="url(#paint7_linear_585_1081)"/>
<path opacity="0.8" d="M135.331 153.248V109.374C134.549 109.338 133.653 109.396 132.562 109.602V153.248C132.562 157.281 135.831 160.549 139.87 160.549H141.086C141.347 160.549 141.607 160.533 141.861 160.506C138.188 160.121 135.331 157.018 135.331 153.248Z" fill="white"/>
<path d="M150.808 82.1503V83.3314C150.808 84.6363 149.752 85.6927 148.453 85.6927H148.388H132.562H132.503C131.197 85.6927 130.142 84.637 130.142 83.3314V82.1503C130.142 80.8514 131.197 79.7957 132.503 79.7957H148.453C149.752 79.7957 150.808 80.8514 150.808 82.1503Z" fill="url(#paint8_linear_585_1081)"/>
<path d="M148.389 85.692V111.53C138.689 112.496 139.253 108.345 132.562 109.602V85.692H148.389Z" fill="url(#paint9_linear_585_1081)"/>
<path d="M132.562 85.692H132.503C131.197 85.692 130.142 84.6363 130.142 83.3306V82.1495C130.142 80.8507 131.197 79.7949 132.503 79.7949H148.453C149.752 79.7949 150.808 80.8507 150.808 82.1495V83.3306C150.808 84.6356 149.752 85.692 148.453 85.692H148.388H132.562Z" stroke="#422A73" stroke-width="3" stroke-miterlimit="10" stroke-linejoin="round"/>
<path d="M148.389 85.692V111.53V153.248C148.389 157.281 145.119 160.549 141.086 160.549H139.87C135.831 160.549 132.562 157.281 132.562 153.248V109.602V85.692" stroke="#422A73" stroke-width="3" stroke-miterlimit="10" stroke-linejoin="round"/>
<path d="M132.562 109.602C139.253 108.345 138.689 112.496 148.389 111.53" stroke="#422A73" stroke-width="3" stroke-miterlimit="10" stroke-linejoin="round"/>
<path opacity="0.4" d="M146.429 118.928C146.433 120.306 145.32 121.426 143.944 121.43C142.567 121.436 141.446 120.324 141.441 118.946L141.403 108.203C141.398 106.825 142.51 105.703 143.888 105.7C145.264 105.693 146.387 106.806 146.39 108.183L146.429 118.928ZM146.361 99.7834C146.356 98.4059 145.235 97.2943 143.858 97.2981C142.481 97.3041 141.368 98.4233 141.373 99.8007L141.379 101.255C141.384 102.632 142.504 103.744 143.881 103.739C145.258 103.734 146.37 102.614 146.365 101.237L146.361 99.7834Z" fill="white"/>
<path d="M154.691 95.2434C154.691 96.3784 153.77 97.299 152.635 97.299H70.5809C69.4444 97.299 68.5254 96.3784 68.5254 95.2434V91.0756C68.5254 89.9406 69.4444 89.0193 70.5809 89.0193H152.635C153.77 89.0193 154.691 89.9406 154.691 91.0756V95.2434Z" fill="url(#paint10_linear_585_1081)" stroke="#422A73" stroke-width="3" stroke-miterlimit="10" stroke-linejoin="round"/>
<path d="M165.968 76.957H160.028V176.313H165.968V76.957Z" fill="url(#paint11_linear_585_1081)" stroke="#422A73" stroke-width="3" stroke-miterlimit="10" stroke-linejoin="round"/>
<path d="M63.1857 76.957H57.2471V176.313H63.1857V76.957Z" fill="url(#paint12_linear_585_1081)" stroke="#422A73" stroke-width="3" stroke-miterlimit="10" stroke-linejoin="round"/>
<path d="M168.939 168.318H54.2764V180.516H168.939V168.318Z" fill="url(#paint13_linear_585_1081)" stroke="#422A73" stroke-width="3" stroke-miterlimit="10" stroke-linejoin="round"/>
<path d="M54.2764 172.659H168.939" stroke="#422A73" stroke-width="1.5" stroke-miterlimit="10" stroke-linejoin="round"/>
</g>
<g opacity="0.5">
<path d="M50.4436 42.35C50.4436 48.3302 45.5924 53.1844 39.61 53.1844C33.6276 53.1844 28.7764 48.3302 28.7764 42.35C28.7764 36.3683 33.6276 31.5164 39.61 31.5164C45.5924 31.5164 50.4436 36.3683 50.4436 42.35Z" fill="url(#paint14_linear_585_1081)" stroke="#422A73" stroke-width="2" stroke-miterlimit="10"/>
<path d="M67.3374 27.1212C67.3374 31.0519 64.1491 34.2425 60.2169 34.2425C56.2848 34.2425 53.0957 31.0519 53.0957 27.1212C53.0957 23.1891 56.2848 20 60.2169 20C64.1498 20 67.3374 23.1891 67.3374 27.1212Z" fill="url(#paint15_linear_585_1081)" stroke="#422A73" stroke-width="2" stroke-miterlimit="10"/>
<path d="M64.0449 122.79C65.8045 124.86 67.339 127.123 68.5888 129.554C58.0927 138.348 42.8935 130.703 28.7764 127.241C40.856 129.412 50.1197 117.634 64.0449 122.79Z" fill="url(#paint16_linear_585_1081)"/>
<path d="M68.5884 129.554C71.0276 134.258 72.4194 139.581 72.4194 145.306C72.4194 164.747 56.65 180.516 37.2097 180.516C17.7604 180.516 2 164.747 2 145.306C2 139.756 3.34042 134.626 5.68824 130.05C12.1434 124.575 20.2584 125.145 28.776 127.24C42.8931 130.704 58.0923 138.349 68.5884 129.554Z" fill="url(#paint17_linear_585_1081)"/>
<path opacity="0.4" d="M40.8979 179.265C21.4486 179.265 5.68824 163.497 5.68824 144.056C5.68824 138.505 7.02942 133.375 9.37648 128.799C10.6248 127.74 11.9372 126.913 13.2996 126.273C10.5847 126.886 8.02699 128.066 5.68824 130.05C3.34118 134.627 2 139.757 2 145.306C2 164.747 17.7604 180.516 37.2097 180.516C41.8555 180.516 46.2876 179.606 50.3496 177.97C47.3418 178.808 44.1738 179.265 40.8979 179.265Z" fill="white"/>
<path opacity="0.4" d="M25.6237 148.068C27.168 153.123 25.3586 158.156 21.582 159.31C17.8062 160.463 13.4949 157.3 11.9506 152.244C10.407 147.19 12.2164 142.156 15.9923 141.003C19.7681 139.849 24.0801 143.012 25.6237 148.068Z" fill="white"/>
<path opacity="0.4" d="M36.917 155.673C37.7394 158.365 36.7751 161.048 34.7625 161.663C32.7508 162.278 30.4543 160.592 29.6319 157.897C28.8088 155.205 29.7731 152.524 31.7849 151.909C33.7967 151.293 36.0939 152.98 36.917 155.673Z" fill="white"/>
<path d="M64.0448 122.79C50.1203 117.634 40.8559 129.412 28.7762 127.241C20.2587 125.146 12.1436 124.576 5.68848 130.05C9.03387 123.477 14.4235 118.046 20.7782 114.164C20.8032 114.147 20.8538 114.113 20.8787 114.097C23.5104 112.403 26.0267 107.574 26.0267 103.802C26.0267 92.4507 26.0267 58.4229 26.0267 58.4229H48.3932C48.3932 58.4229 48.3932 92.4507 48.3932 103.802C48.3932 107.574 50.9661 112.529 53.6333 114.156C53.6575 114.172 53.7005 114.197 53.7247 114.214C57.6387 116.477 61.1525 119.378 64.0448 122.79Z" fill="url(#paint18_linear_585_1081)"/>
<path d="M51.8133 53.4267V55.0858C51.8133 56.9299 50.3211 58.4229 48.477 58.4229H48.3932H26.0266H25.9345C24.0979 58.4229 22.6064 56.9299 22.6064 55.0858V53.4267C22.6064 51.5826 24.0987 50.0896 25.9345 50.0896H48.477C50.3218 50.0896 51.8133 51.5818 51.8133 53.4267Z" fill="url(#paint19_linear_585_1081)"/>
<path d="M26.0266 58.4229H25.9345C24.0979 58.4229 22.6064 56.9299 22.6064 55.0858V53.4267C22.6064 51.5826 24.0987 50.0896 25.9345 50.0896H48.477C50.3211 50.0896 51.8133 51.5826 51.8133 53.4267V55.0858C51.8133 56.9299 50.3211 58.4229 48.477 58.4229H48.3932H26.0266Z" stroke="#422A73" stroke-width="3" stroke-miterlimit="10" stroke-linejoin="round"/>
<path d="M26.0264 58.4229C26.0264 58.4229 26.0264 92.4507 26.0264 103.802C26.0264 107.574 23.511 112.403 20.8784 114.097C20.8535 114.113 20.8029 114.146 20.778 114.164C14.4233 118.046 9.03288 123.477 5.68824 130.05C3.34118 134.628 2 139.757 2 145.307C2 164.748 17.7604 180.517 37.2097 180.517C56.65 180.517 72.4194 164.748 72.4194 145.307C72.4194 139.581 71.0276 134.258 68.5884 129.555C67.3393 127.124 65.8048 124.861 64.0446 122.79C61.1523 119.378 57.6392 116.478 53.7237 114.215C53.6995 114.198 53.6565 114.172 53.6323 114.156C50.9658 112.53 48.3922 107.574 48.3922 103.802C48.3922 92.4515 48.3922 58.4236 48.3922 58.4236" stroke="#422A73" stroke-width="3" stroke-miterlimit="10" stroke-linejoin="round"/>
<path d="M5.68848 130.05C12.1436 124.575 20.2587 125.145 28.7762 127.24C42.8926 130.703 58.0918 138.348 68.5886 129.554" stroke="#422A73" stroke-width="3" stroke-miterlimit="10" stroke-linejoin="round"/>
<path d="M64.0449 122.79C50.1204 117.634 40.856 129.412 28.7764 127.241" stroke="#422A73" stroke-width="3" stroke-miterlimit="10" stroke-linejoin="round"/>
<path d="M44.1182 111.912C44.1182 115.384 41.303 118.2 37.8315 118.2C34.3592 118.2 31.5439 115.383 31.5439 111.912C31.5439 108.44 34.36 105.625 37.8315 105.625C41.303 105.625 44.1182 108.44 44.1182 111.912Z" fill="url(#paint20_linear_585_1081)" stroke="#422A73" stroke-width="2" stroke-miterlimit="10"/>
</g>
<path d="M231.272 140.99L218.364 153.884L173.963 109.513L186.925 96.2397L231.272 140.99Z" fill="#909BA0"/>
<path d="M244.605 167.098L244.456 167.246C240.384 171.313 234.61 172.135 231.56 169.081L196.399 134.411L211.374 118.791L246.454 154.204C249.505 157.258 248.677 163.03 244.605 167.098Z" fill="#2E4661"/>
<path d="M193.797 103.473L189.187 98.8575C189.2 98.8402 189.213 98.8225 189.225 98.8052L193.797 103.473Z" fill="#D7DFE1"/>
<path d="M178.122 113.449L176.296 111.34C178.955 109.496 181.489 107.39 183.859 105.022C185.812 103.071 187.588 101.009 189.186 98.8573L193.797 103.473L202.933 112.802L178.122 113.449Z" fill="#838D91"/>
<circle cx="143.955" cy="65.9268" r="51.9367" transform="rotate(13.0557 143.955 65.9268)" stroke="#59595B" stroke-width="6"/>
<path opacity="0.5" d="M178.033 32.9899C196.599 51.5767 196.582 81.6949 177.995 100.261C159.408 118.827 129.29 118.81 110.724 100.223C92.158 81.6361 92.175 51.518 110.762 32.9521C129.349 14.3862 159.467 14.4032 178.033 32.9899Z" fill="#B3D1E2"/>
<path d="M108.566 58.9325C106.922 58.551 105.472 57.0675 105.93 54.9453C106.274 53.3469 106.691 51.7606 107.248 50.2216C113.002 34.3081 128.271 23.0922 145.369 23.4027C148.211 23.4544 150.994 23.8055 153.686 24.4299C167.428 27.6166 178.769 37.9186 183.091 51.7778C183.955 54.5475 181.264 56.2025 179.061 55.6917C178.032 55.4529 177.109 54.7409 176.705 53.4484C173.137 42.0055 163.595 33.4672 152.267 30.8402C149.342 30.1619 146.297 29.8776 143.206 30.0393C128.105 30.8294 115.49 41.8964 112.314 56.6232C111.874 58.6595 110.132 59.2959 108.566 58.9325Z" fill="#C4DBE8"/>
<path d="M180.793 69.2701C180.027 69.0926 179.301 68.7053 178.704 68.1079C177.007 66.4095 177.009 63.6574 178.708 61.9608C179.809 60.8608 181.353 60.4747 182.766 60.8021C183.532 60.9798 184.258 61.367 184.855 61.9642C186.552 63.6626 186.55 66.415 184.851 68.1113C183.75 69.2115 182.206 69.5977 180.793 69.2701Z" fill="#CBDFEB"/>
<path d="M197.082 133.937L211.33 119.076C211.819 118.565 211.843 117.767 211.384 117.229L211.236 117.054C210.703 116.428 209.745 116.405 209.182 117.003L195.063 132.021C194.535 132.583 194.571 133.47 195.143 133.987L195.164 134.006C195.716 134.506 196.567 134.475 197.082 133.937Z" fill="#A36652"/>
<path d="M189.867 76.9076C187.262 87.9597 180.758 97.7499 171.524 104.374C162.409 110.912 151.141 113.885 139.988 112.912C128.586 111.917 117.839 106.474 110.049 98.1485C102.461 90.0401 98.061 79.2254 97.5986 68.157C97.1193 56.6801 101.081 45.2032 108.42 36.3885C115.489 27.8975 125.606 22.0904 136.495 20.2349C147.864 18.2978 159.685 20.7643 169.427 26.8892C178.809 32.7872 185.77 42.1405 189.044 52.691C191.476 60.5272 191.688 68.9234 189.867 76.9076C189.506 78.4873 191.954 79.0557 192.315 77.4753C194.845 66.3839 193.485 54.8235 188.522 44.5981C183.677 34.6147 175.304 26.4778 165.284 21.7553C154.892 16.8573 142.942 15.8193 131.838 18.6836C121.164 21.4367 111.558 27.9602 104.938 36.7506C98.0186 45.9384 94.5561 57.4597 95.1174 68.937C95.6596 80.0271 100.157 90.661 107.437 98.9966C114.922 107.567 125.449 113.209 136.654 115.008C147.764 116.791 159.234 114.577 168.979 108.996C180.751 102.256 189.212 90.6414 192.315 77.4753C192.687 75.8973 190.238 75.3302 189.867 76.9076Z" fill="#6A8678"/>
<defs>
<linearGradient id="paint0_linear_585_1081" x1="61.1862" y1="93.1594" x2="162.028" y2="93.1594" gradientUnits="userSpaceOnUse">
<stop stop-color="#FFD8BF"/>
<stop offset="1" stop-color="#DEAC8C"/>
</linearGradient>
<linearGradient id="paint1_linear_585_1081" x1="73.6999" y1="110.044" x2="87.9358" y2="146.326" gradientUnits="userSpaceOnUse">
<stop stop-color="#B3FC53"/>
<stop offset="1" stop-color="#3AD664"/>
</linearGradient>
<linearGradient id="paint2_linear_585_1081" x1="72.4062" y1="82.7437" x2="93.0724" y2="82.7437" gradientUnits="userSpaceOnUse">
<stop stop-color="white"/>
<stop offset="1" stop-color="#D2E5F7"/>
</linearGradient>
<linearGradient id="paint3_linear_585_1081" x1="74.8262" y1="98.6847" x2="90.6524" y2="98.6847" gradientUnits="userSpaceOnUse">
<stop stop-color="white"/>
<stop offset="1" stop-color="#D2E5F7"/>
</linearGradient>
<linearGradient id="paint4_linear_585_1081" x1="102.568" y1="110.044" x2="116.804" y2="146.326" gradientUnits="userSpaceOnUse">
<stop stop-color="#53FCCF"/>
<stop offset="1" stop-color="#3A63D6"/>
</linearGradient>
<linearGradient id="paint5_linear_585_1081" x1="101.274" y1="82.7437" x2="121.941" y2="82.7437" gradientUnits="userSpaceOnUse">
<stop stop-color="white"/>
<stop offset="1" stop-color="#D2E5F7"/>
</linearGradient>
<linearGradient id="paint6_linear_585_1081" x1="103.694" y1="98.6847" x2="119.52" y2="98.6847" gradientUnits="userSpaceOnUse">
<stop stop-color="white"/>
<stop offset="1" stop-color="#D2E5F7"/>
</linearGradient>
<linearGradient id="paint7_linear_585_1081" x1="131.436" y1="110.044" x2="145.672" y2="146.326" gradientUnits="userSpaceOnUse">
<stop stop-color="#FC9CD9"/>
<stop offset="1" stop-color="#FC358F"/>
</linearGradient>
<linearGradient id="paint8_linear_585_1081" x1="130.142" y1="82.7437" x2="150.808" y2="82.7437" gradientUnits="userSpaceOnUse">
<stop stop-color="white"/>
<stop offset="1" stop-color="#D2E5F7"/>
</linearGradient>
<linearGradient id="paint9_linear_585_1081" x1="132.563" y1="98.6847" x2="148.389" y2="98.6847" gradientUnits="userSpaceOnUse">
<stop stop-color="white"/>
<stop offset="1" stop-color="#D2E5F7"/>
</linearGradient>
<linearGradient id="paint10_linear_585_1081" x1="68.5257" y1="93.159" x2="154.691" y2="93.159" gradientUnits="userSpaceOnUse">
<stop stop-color="#FFD8BF"/>
<stop offset="1" stop-color="#DEAC8C"/>
</linearGradient>
<linearGradient id="paint11_linear_585_1081" x1="162.998" y1="176.313" x2="162.998" y2="76.9569" gradientUnits="userSpaceOnUse">
<stop stop-color="#FFD8BF"/>
<stop offset="1" stop-color="#DEAC8C"/>
</linearGradient>
<linearGradient id="paint12_linear_585_1081" x1="60.2164" y1="176.313" x2="60.2164" y2="76.9569" gradientUnits="userSpaceOnUse">
<stop stop-color="#FFD8BF"/>
<stop offset="1" stop-color="#DEAC8C"/>
</linearGradient>
<linearGradient id="paint13_linear_585_1081" x1="54.2765" y1="174.417" x2="168.939" y2="174.417" gradientUnits="userSpaceOnUse">
<stop stop-color="#FFD8BF"/>
<stop offset="1" stop-color="#DEAC8C"/>
</linearGradient>
<linearGradient id="paint14_linear_585_1081" x1="32.3081" y1="37.7317" x2="46.5143" y2="46.716" gradientUnits="userSpaceOnUse">
<stop stop-color="#D375FF"/>
<stop offset="1" stop-color="#513AD6"/>
</linearGradient>
<linearGradient id="paint15_linear_585_1081" x1="55.4174" y1="24.0853" x2="64.755" y2="29.9906" gradientUnits="userSpaceOnUse">
<stop stop-color="#D375FF"/>
<stop offset="1" stop-color="#513AD6"/>
</linearGradient>
<linearGradient id="paint16_linear_585_1081" x1="31.4509" y1="119.364" x2="59.7441" y2="130.052" gradientUnits="userSpaceOnUse">
<stop stop-color="#D375FF"/>
<stop offset="1" stop-color="#513AD6"/>
</linearGradient>
<linearGradient id="paint17_linear_585_1081" x1="12.4232" y1="132.665" x2="58.3217" y2="161.692" gradientUnits="userSpaceOnUse">
<stop stop-color="#D375FF"/>
<stop offset="1" stop-color="#513AD6"/>
</linearGradient>
<linearGradient id="paint18_linear_585_1081" x1="5.68802" y1="94.2364" x2="64.0446" y2="94.2364" gradientUnits="userSpaceOnUse">
<stop stop-color="white"/>
<stop offset="1" stop-color="#D2E5F7"/>
</linearGradient>
<linearGradient id="paint19_linear_585_1081" x1="22.6063" y1="54.256" x2="51.8137" y2="54.256" gradientUnits="userSpaceOnUse">
<stop stop-color="white"/>
<stop offset="1" stop-color="#D2E5F7"/>
</linearGradient>
<linearGradient id="paint20_linear_585_1081" x1="33.5932" y1="109.232" x2="41.8381" y2="114.446" gradientUnits="userSpaceOnUse">
<stop stop-color="#D375FF"/>
<stop offset="1" stop-color="#513AD6"/>
</linearGradient>
</defs>
</svg>
